Cafe Del Mar - Chill House Mix 

The following two(Chill House Mix 2 and Chill House Mix 3) will be released after Chill House Mix seeding done!

introduction from wikipedia:

Café del Mar is a bar located in San Antonio, Ibiza, just to the west of the West End. It is a popular summer 

tourist destination, noted for its view of the ...  

 
http://en.wikipedia.org/wiki/Caf%C3%A9_del_Mar

if you want to know more, google it !

###############################################################

Cafe Del Mar - Chill House Mix CD1.cue list:

PERFORMER "Various Artists"
TITLE "Cafe Del Mar - Chill House Mix CD1"
FILE "Cafe Del Mar - Chill House Mix CD1.ape" WAVE
  TRACK 01 AUDIO
    TITLE "Private Matter"
    PERFORMER "Deep & Wide"
    INDEX 01 00:00:00
  TRACK 02 AUDIO
    TITLE "Fusique"
    PERFORMER "Solaris Heights"
    INDEX 01 05:07:24
  TRACK 03 AUDIO
    TITLE "Loungin"
    PERFORMER "Fredrik Stark & Citydreams"
    INDEX 01 12:05:63
  TRACK 04 AUDIO
    TITLE "Fallin"
    PERFORMER "Johnny Fiasco"
    INDEX 00 16:46:05
    INDEX 01 16:46:15
  TRACK 05 AUDIO
    TITLE "Release (Attaboy Vocal Mix)"
    PERFORMER "Arsenal"
    INDEX 00 21:37:64
    INDEX 01 21:37:74
  TRACK 06 AUDIO
    TITLE "Hugo A Gogo"
    PERFORMER "Weekender"
    INDEX 01 29:03:27
  TRACK 07 AUDIO
    TITLE "So Good"
    PERFORMER "Trumpet Man"
    INDEX 01 36:59:46
  TRACK 08 AUDIO
    TITLE "Changes"
    PERFORMER "LKH Productions"
    INDEX 00 41:20:22
    INDEX 01 41:20:23
  TRACK 09 AUDIO
    TITLE "The More I Get, The More I Want (Teddy's House Groove)"
    PERFORMER "East West Connection feat. Eugene 'Hideaway' Bridges"
    INDEX 01 45:57:41
  TRACK 10 AUDIO
    TITLE "Mississippi Rollcall"
    PERFORMER "Freil"
    INDEX 01 50:14:57

###############################################################

Cafe Del Mar - Chill House Mix CD2.cue list:
PERFORMER "Various Artists"
TITLE "Cafe del Mar - Chill House Mix CD2"
FILE "Cafe del Mar - Chill House Mix CD2.ape" WAVE
  TRACK 01 AUDIO
    TITLE "How Intensitive"
    PERFORMER "Sun Trust"
    INDEX 01 00:00:00
  TRACK 02 AUDIO
    TITLE "Feeling Kinda Blue"
    PERFORMER "Bone City"
    INDEX 00 06:59:09
    INDEX 01 06:59:34
  TRACK 03 AUDIO
    TITLE "I Know"
    PERFORMER "Kerry Chandler"
    INDEX 01 10:59:38
  TRACK 04 AUDIO
    TITLE "On The Way"
    PERFORMER "Fancois K. Feat. The Alchemist"
    INDEX 00 16:44:15
    INDEX 01 16:44:38
  TRACK 05 AUDIO
    TITLE "No Other Lover (Cafe Del Mar Mix)"
    PERFORMER "Deep & Wide"
    INDEX 00 22:34:23
    INDEX 01 22:34:50
  TRACK 06 AUDIO
    TITLE "Burnin' (Baron's Vibes Mix)"
    PERFORMER "Kamasutra Feat. Corrina Joseph"
    INDEX 00 28:23:54
    INDEX 01 28:24:07
  TRACK 07 AUDIO
    TITLE "Pick Me Up (Shroom Tea Mix)"
    PERFORMER "Irving Project"
    INDEX 01 34:28:09
  TRACK 08 AUDIO
    TITLE "In The Mood"
    PERFORMER "Mateo & Matos"
    INDEX 00 40:12:68
    INDEX 01 40:13:09
  TRACK 09 AUDIO
    TITLE "Inside (Naked Lovers Dub)"
    PERFORMER "Terra Deva"
    INDEX 01 44:58:07
  TRACK 10 AUDIO
    TITLE "Come Morning (Jazz Excursion Mix)"
    PERFORMER "Julius Papp & Dave Warrin"
    INDEX 00 52:01:35
    INDEX 01 52:01:64
###############################################################